<mxfile host="app.diagrams.net" modified="2023-07-29T23:08:36.189Z" agent="Mozilla/5.0 (Windows NT 10.0; Win64; x64) AppleWebKit/537.36 (KHTML, like Gecko) Chrome/115.0.0.0 Safari/537.36" etag="36L2quCXb7f-fXNVwt0Q" version="21.6.6" type="github">
  <diagram name="Page-1" id="dpHrziN7iInBP1G3Hoh1">
    <mxGraphModel dx="2806" dy="1076" grid="1" gridSize="10" guides="1" tooltips="1" connect="1" arrows="1" fold="1" page="1" pageScale="1" pageWidth="850" pageHeight="1100" math="0" shadow="0">
      <root>
        <mxCell id="0" />
        <mxCell id="1" parent="0" />
        <mxCell id="xc64UkYX_4XRm6IWmarA-1" value="Job Type" style="rounded=1;arcSize=10;whiteSpace=wrap;html=1;align=center;fillColor=#fff2cc;strokeColor=#d6b656;" parent="1" vertex="1">
          <mxGeometry x="704" y="410" width="100" height="40" as="geometry" />
        </mxCell>
        <mxCell id="xc64UkYX_4XRm6IWmarA-2" value="ID" style="ellipse;whiteSpace=wrap;html=1;align=center;fontStyle=4;" parent="1" vertex="1">
          <mxGeometry x="704" y="320" width="100" height="40" as="geometry" />
        </mxCell>
        <mxCell id="xc64UkYX_4XRm6IWmarA-3" value="" style="endArrow=none;html=1;rounded=0;exitX=0.5;exitY=1;exitDx=0;exitDy=0;entryX=0.5;entryY=0;entryDx=0;entryDy=0;" parent="1" source="xc64UkYX_4XRm6IWmarA-2" target="xc64UkYX_4XRm6IWmarA-1" edge="1">
          <mxGeometry relative="1" as="geometry">
            <mxPoint x="774" y="390" as="sourcePoint" />
            <mxPoint x="934" y="390" as="targetPoint" />
          </mxGeometry>
        </mxCell>
        <mxCell id="xc64UkYX_4XRm6IWmarA-4" value="Type" style="ellipse;whiteSpace=wrap;html=1;align=center;" parent="1" vertex="1">
          <mxGeometry x="858" y="410" width="100" height="40" as="geometry" />
        </mxCell>
        <mxCell id="xc64UkYX_4XRm6IWmarA-5" value="" style="endArrow=none;html=1;rounded=0;exitX=1;exitY=0.5;exitDx=0;exitDy=0;entryX=0;entryY=0.5;entryDx=0;entryDy=0;" parent="1" source="xc64UkYX_4XRm6IWmarA-1" target="xc64UkYX_4XRm6IWmarA-4" edge="1">
          <mxGeometry relative="1" as="geometry">
            <mxPoint x="774" y="480" as="sourcePoint" />
            <mxPoint x="934" y="480" as="targetPoint" />
          </mxGeometry>
        </mxCell>
        <mxCell id="xc64UkYX_4XRm6IWmarA-11" value="Experience level" style="rounded=1;arcSize=10;whiteSpace=wrap;html=1;align=center;fillColor=#fff2cc;strokeColor=#d6b656;" parent="1" vertex="1">
          <mxGeometry x="41" y="410" width="100" height="40" as="geometry" />
        </mxCell>
        <mxCell id="xc64UkYX_4XRm6IWmarA-13" value="ID" style="ellipse;whiteSpace=wrap;html=1;align=center;fontStyle=4;" parent="1" vertex="1">
          <mxGeometry x="41" y="320" width="100" height="40" as="geometry" />
        </mxCell>
        <mxCell id="xc64UkYX_4XRm6IWmarA-14" value="" style="endArrow=none;html=1;rounded=0;exitX=0.5;exitY=1;exitDx=0;exitDy=0;entryX=0.5;entryY=0;entryDx=0;entryDy=0;" parent="1" source="xc64UkYX_4XRm6IWmarA-13" target="xc64UkYX_4XRm6IWmarA-11" edge="1">
          <mxGeometry relative="1" as="geometry">
            <mxPoint x="61" y="470" as="sourcePoint" />
            <mxPoint x="221" y="470" as="targetPoint" />
          </mxGeometry>
        </mxCell>
        <mxCell id="xc64UkYX_4XRm6IWmarA-15" value="Type" style="ellipse;whiteSpace=wrap;html=1;align=center;" parent="1" vertex="1">
          <mxGeometry x="-119" y="410" width="100" height="40" as="geometry" />
        </mxCell>
        <mxCell id="xc64UkYX_4XRm6IWmarA-16" value="" style="endArrow=none;html=1;rounded=0;exitX=1;exitY=0.5;exitDx=0;exitDy=0;entryX=0;entryY=0.5;entryDx=0;entryDy=0;" parent="1" source="xc64UkYX_4XRm6IWmarA-15" target="xc64UkYX_4XRm6IWmarA-11" edge="1">
          <mxGeometry relative="1" as="geometry">
            <mxPoint x="-9" y="490" as="sourcePoint" />
            <mxPoint x="151" y="490" as="targetPoint" />
          </mxGeometry>
        </mxCell>
        <mxCell id="xc64UkYX_4XRm6IWmarA-17" value="Company" style="rounded=1;arcSize=10;whiteSpace=wrap;html=1;align=center;fillColor=#fff2cc;strokeColor=#d6b656;" parent="1" vertex="1">
          <mxGeometry x="41" y="560" width="100" height="40" as="geometry" />
        </mxCell>
        <mxCell id="xc64UkYX_4XRm6IWmarA-18" value="ID" style="ellipse;whiteSpace=wrap;html=1;align=center;fontStyle=4;" parent="1" vertex="1">
          <mxGeometry x="41" y="660" width="100" height="40" as="geometry" />
        </mxCell>
        <mxCell id="xc64UkYX_4XRm6IWmarA-19" value="Name" style="ellipse;whiteSpace=wrap;html=1;align=center;" parent="1" vertex="1">
          <mxGeometry x="-119" y="560" width="100" height="40" as="geometry" />
        </mxCell>
        <mxCell id="xc64UkYX_4XRm6IWmarA-20" value="" style="endArrow=none;html=1;rounded=0;exitX=1;exitY=0.5;exitDx=0;exitDy=0;entryX=0;entryY=0.5;entryDx=0;entryDy=0;" parent="1" source="xc64UkYX_4XRm6IWmarA-19" target="xc64UkYX_4XRm6IWmarA-17" edge="1">
          <mxGeometry relative="1" as="geometry">
            <mxPoint x="21" y="680" as="sourcePoint" />
            <mxPoint x="181" y="680" as="targetPoint" />
          </mxGeometry>
        </mxCell>
        <mxCell id="xc64UkYX_4XRm6IWmarA-21" value="" style="endArrow=none;html=1;rounded=0;entryX=0.5;entryY=1;entryDx=0;entryDy=0;exitX=0.5;exitY=0;exitDx=0;exitDy=0;" parent="1" source="xc64UkYX_4XRm6IWmarA-18" target="xc64UkYX_4XRm6IWmarA-17" edge="1">
          <mxGeometry relative="1" as="geometry">
            <mxPoint x="-129" y="630" as="sourcePoint" />
            <mxPoint x="31" y="630" as="targetPoint" />
          </mxGeometry>
        </mxCell>
        <mxCell id="xc64UkYX_4XRm6IWmarA-22" value="jobs offer" style="rounded=1;arcSize=10;whiteSpace=wrap;html=1;align=center;fillColor=#fff2cc;strokeColor=#d6b656;" parent="1" vertex="1">
          <mxGeometry x="363" y="700" width="100" height="40" as="geometry" />
        </mxCell>
        <mxCell id="xc64UkYX_4XRm6IWmarA-23" value="ID" style="ellipse;whiteSpace=wrap;html=1;align=center;fontStyle=4;" parent="1" vertex="1">
          <mxGeometry x="363" y="790" width="100" height="40" as="geometry" />
        </mxCell>
        <mxCell id="xc64UkYX_4XRm6IWmarA-25" value="" style="endArrow=none;html=1;rounded=0;entryX=0.5;entryY=0;entryDx=0;entryDy=0;" parent="1" source="xc64UkYX_4XRm6IWmarA-22" target="xc64UkYX_4XRm6IWmarA-23" edge="1">
          <mxGeometry relative="1" as="geometry">
            <mxPoint x="183" y="780" as="sourcePoint" />
            <mxPoint x="343" y="780" as="targetPoint" />
          </mxGeometry>
        </mxCell>
        <mxCell id="xc64UkYX_4XRm6IWmarA-26" value="Title" style="ellipse;whiteSpace=wrap;html=1;align=center;" parent="1" vertex="1">
          <mxGeometry x="243" y="780" width="100" height="40" as="geometry" />
        </mxCell>
        <mxCell id="xc64UkYX_4XRm6IWmarA-27" value="" style="endArrow=none;html=1;rounded=0;entryX=0;entryY=0.5;entryDx=0;entryDy=0;exitX=0.5;exitY=0;exitDx=0;exitDy=0;" parent="1" source="xc64UkYX_4XRm6IWmarA-26" target="xc64UkYX_4XRm6IWmarA-22" edge="1">
          <mxGeometry relative="1" as="geometry">
            <mxPoint x="173" y="710" as="sourcePoint" />
            <mxPoint x="333" y="710" as="targetPoint" />
          </mxGeometry>
        </mxCell>
        <mxCell id="xc64UkYX_4XRm6IWmarA-28" value="Salary" style="ellipse;whiteSpace=wrap;html=1;align=center;" parent="1" vertex="1">
          <mxGeometry x="483" y="780" width="100" height="40" as="geometry" />
        </mxCell>
        <mxCell id="xc64UkYX_4XRm6IWmarA-29" value="" style="endArrow=none;html=1;rounded=0;exitX=1;exitY=0.5;exitDx=0;exitDy=0;entryX=0.5;entryY=0;entryDx=0;entryDy=0;" parent="1" source="xc64UkYX_4XRm6IWmarA-22" target="xc64UkYX_4XRm6IWmarA-28" edge="1">
          <mxGeometry relative="1" as="geometry">
            <mxPoint x="543" y="730" as="sourcePoint" />
            <mxPoint x="703" y="730" as="targetPoint" />
          </mxGeometry>
        </mxCell>
        <mxCell id="xc64UkYX_4XRm6IWmarA-32" value="" style="endArrow=none;html=1;rounded=0;exitX=1;exitY=1;exitDx=0;exitDy=0;entryX=0;entryY=0.5;entryDx=0;entryDy=0;" parent="1" source="xc64UkYX_4XRm6IWmarA-17" target="XW2PdBVg0nFlIH_IAWjY-1" edge="1">
          <mxGeometry relative="1" as="geometry">
            <mxPoint x="110" y="790" as="sourcePoint" />
            <mxPoint x="270" y="790" as="targetPoint" />
          </mxGeometry>
        </mxCell>
        <mxCell id="ScXYiewNh22zqdp0svSO-18" value="1" style="edgeLabel;html=1;align=center;verticalAlign=middle;resizable=0;points=[];" parent="xc64UkYX_4XRm6IWmarA-32" vertex="1" connectable="0">
          <mxGeometry x="-0.6751" y="-1" relative="1" as="geometry">
            <mxPoint y="-1" as="offset" />
          </mxGeometry>
        </mxCell>
        <mxCell id="xc64UkYX_4XRm6IWmarA-33" value="Tags" style="ellipse;shape=doubleEllipse;margin=3;whiteSpace=wrap;html=1;align=center;" parent="1" vertex="1">
          <mxGeometry x="704" y="570" width="100" height="40" as="geometry" />
        </mxCell>
        <mxCell id="xc64UkYX_4XRm6IWmarA-34" value="" style="endArrow=none;html=1;rounded=0;entryX=0;entryY=0.5;entryDx=0;entryDy=0;exitX=1;exitY=0;exitDx=0;exitDy=0;" parent="1" source="xc64UkYX_4XRm6IWmarA-22" target="xc64UkYX_4XRm6IWmarA-33" edge="1">
          <mxGeometry relative="1" as="geometry">
            <mxPoint x="290" y="610" as="sourcePoint" />
            <mxPoint x="450" y="610" as="targetPoint" />
          </mxGeometry>
        </mxCell>
        <mxCell id="xc64UkYX_4XRm6IWmarA-35" value="" style="endArrow=none;html=1;rounded=0;exitX=1;exitY=0.5;exitDx=0;exitDy=0;entryX=0.5;entryY=0;entryDx=0;entryDy=0;" parent="1" source="XW2PdBVg0nFlIH_IAWjY-5" target="xc64UkYX_4XRm6IWmarA-22" edge="1">
          <mxGeometry relative="1" as="geometry">
            <mxPoint x="330" y="500" as="sourcePoint" />
            <mxPoint x="490" y="500" as="targetPoint" />
          </mxGeometry>
        </mxCell>
        <mxCell id="ScXYiewNh22zqdp0svSO-20" value="N" style="edgeLabel;html=1;align=center;verticalAlign=middle;resizable=0;points=[];" parent="xc64UkYX_4XRm6IWmarA-35" vertex="1" connectable="0">
          <mxGeometry x="0.5625" y="1" relative="1" as="geometry">
            <mxPoint x="-1" as="offset" />
          </mxGeometry>
        </mxCell>
        <mxCell id="xc64UkYX_4XRm6IWmarA-36" value="" style="endArrow=none;html=1;rounded=0;entryX=0;entryY=1;entryDx=0;entryDy=0;exitX=1;exitY=0.5;exitDx=0;exitDy=0;" parent="1" source="XW2PdBVg0nFlIH_IAWjY-7" target="xc64UkYX_4XRm6IWmarA-1" edge="1">
          <mxGeometry relative="1" as="geometry">
            <mxPoint x="410" y="500" as="sourcePoint" />
            <mxPoint x="570" y="500" as="targetPoint" />
          </mxGeometry>
        </mxCell>
        <mxCell id="ScXYiewNh22zqdp0svSO-16" value="1" style="edgeLabel;html=1;align=center;verticalAlign=middle;resizable=0;points=[];" parent="xc64UkYX_4XRm6IWmarA-36" vertex="1" connectable="0">
          <mxGeometry x="0.7292" relative="1" as="geometry">
            <mxPoint as="offset" />
          </mxGeometry>
        </mxCell>
        <mxCell id="ScXYiewNh22zqdp0svSO-1" value="Countries" style="rounded=1;arcSize=10;whiteSpace=wrap;html=1;align=center;fillColor=#fff2cc;strokeColor=#d6b656;" parent="1" vertex="1">
          <mxGeometry x="363" y="150" width="100" height="40" as="geometry" />
        </mxCell>
        <mxCell id="ScXYiewNh22zqdp0svSO-2" value="ID" style="ellipse;whiteSpace=wrap;html=1;align=center;fontStyle=4;" parent="1" vertex="1">
          <mxGeometry x="263" y="40" width="100" height="40" as="geometry" />
        </mxCell>
        <mxCell id="ScXYiewNh22zqdp0svSO-3" value="Name" style="ellipse;whiteSpace=wrap;html=1;align=center;" parent="1" vertex="1">
          <mxGeometry x="463" y="40" width="100" height="40" as="geometry" />
        </mxCell>
        <mxCell id="ScXYiewNh22zqdp0svSO-4" value="" style="endArrow=none;html=1;rounded=0;exitX=0.5;exitY=1;exitDx=0;exitDy=0;entryX=0.5;entryY=0;entryDx=0;entryDy=0;" parent="1" source="ScXYiewNh22zqdp0svSO-27" target="xc64UkYX_4XRm6IWmarA-22" edge="1">
          <mxGeometry relative="1" as="geometry">
            <mxPoint x="370" y="320" as="sourcePoint" />
            <mxPoint x="530" y="320" as="targetPoint" />
          </mxGeometry>
        </mxCell>
        <mxCell id="ScXYiewNh22zqdp0svSO-24" value="N" style="edgeLabel;html=1;align=center;verticalAlign=middle;resizable=0;points=[];" parent="ScXYiewNh22zqdp0svSO-4" vertex="1" connectable="0">
          <mxGeometry x="0.6916" relative="1" as="geometry">
            <mxPoint as="offset" />
          </mxGeometry>
        </mxCell>
        <mxCell id="ScXYiewNh22zqdp0svSO-25" value="" style="endArrow=none;html=1;rounded=0;exitX=0.5;exitY=1;exitDx=0;exitDy=0;entryX=0;entryY=0;entryDx=0;entryDy=0;" parent="1" source="ScXYiewNh22zqdp0svSO-2" target="ScXYiewNh22zqdp0svSO-1" edge="1">
          <mxGeometry relative="1" as="geometry">
            <mxPoint x="240" y="120" as="sourcePoint" />
            <mxPoint x="400" y="120" as="targetPoint" />
          </mxGeometry>
        </mxCell>
        <mxCell id="ScXYiewNh22zqdp0svSO-26" value="" style="endArrow=none;html=1;rounded=0;exitX=1;exitY=0;exitDx=0;exitDy=0;entryX=0.5;entryY=1;entryDx=0;entryDy=0;" parent="1" source="ScXYiewNh22zqdp0svSO-1" target="ScXYiewNh22zqdp0svSO-3" edge="1">
          <mxGeometry relative="1" as="geometry">
            <mxPoint x="520" y="130" as="sourcePoint" />
            <mxPoint x="680" y="130" as="targetPoint" />
          </mxGeometry>
        </mxCell>
        <mxCell id="ScXYiewNh22zqdp0svSO-28" value="" style="endArrow=none;html=1;rounded=0;exitX=0.5;exitY=1;exitDx=0;exitDy=0;entryX=0.5;entryY=0;entryDx=0;entryDy=0;" parent="1" source="ScXYiewNh22zqdp0svSO-1" target="ScXYiewNh22zqdp0svSO-27" edge="1">
          <mxGeometry relative="1" as="geometry">
            <mxPoint x="413" y="190" as="sourcePoint" />
            <mxPoint x="413" y="700" as="targetPoint" />
          </mxGeometry>
        </mxCell>
        <mxCell id="ScXYiewNh22zqdp0svSO-29" value="1" style="edgeLabel;html=1;align=center;verticalAlign=middle;resizable=0;points=[];" parent="ScXYiewNh22zqdp0svSO-28" vertex="1" connectable="0">
          <mxGeometry x="-0.8021" y="2" relative="1" as="geometry">
            <mxPoint x="-3" y="5" as="offset" />
          </mxGeometry>
        </mxCell>
        <mxCell id="ScXYiewNh22zqdp0svSO-27" value="Relationship" style="shape=rhombus;perimeter=rhombusPerimeter;whiteSpace=wrap;html=1;align=center;" parent="1" vertex="1">
          <mxGeometry x="350" y="340" width="120" height="60" as="geometry" />
        </mxCell>
        <mxCell id="XW2PdBVg0nFlIH_IAWjY-1" value="Make" style="shape=rhombus;perimeter=rhombusPerimeter;whiteSpace=wrap;html=1;align=center;rotation=25;" vertex="1" parent="1">
          <mxGeometry x="190" y="620" width="120" height="60" as="geometry" />
        </mxCell>
        <mxCell id="XW2PdBVg0nFlIH_IAWjY-3" value="" style="endArrow=none;html=1;rounded=0;exitX=1;exitY=0.5;exitDx=0;exitDy=0;entryX=0;entryY=0;entryDx=0;entryDy=0;" edge="1" parent="1" source="XW2PdBVg0nFlIH_IAWjY-1" target="xc64UkYX_4XRm6IWmarA-22">
          <mxGeometry relative="1" as="geometry">
            <mxPoint x="220" y="700" as="sourcePoint" />
            <mxPoint x="380" y="700" as="targetPoint" />
          </mxGeometry>
        </mxCell>
        <mxCell id="XW2PdBVg0nFlIH_IAWjY-4" value="N" style="edgeLabel;html=1;align=center;verticalAlign=middle;resizable=0;points=[];" vertex="1" connectable="0" parent="XW2PdBVg0nFlIH_IAWjY-3">
          <mxGeometry x="0.2839" relative="1" as="geometry">
            <mxPoint as="offset" />
          </mxGeometry>
        </mxCell>
        <mxCell id="XW2PdBVg0nFlIH_IAWjY-5" value="Has" style="shape=rhombus;perimeter=rhombusPerimeter;whiteSpace=wrap;html=1;align=center;rotation=45;" vertex="1" parent="1">
          <mxGeometry x="180" y="510" width="120" height="60" as="geometry" />
        </mxCell>
        <mxCell id="XW2PdBVg0nFlIH_IAWjY-6" value="" style="endArrow=none;html=1;rounded=0;exitX=1;exitY=1;exitDx=0;exitDy=0;entryX=0;entryY=0.5;entryDx=0;entryDy=0;" edge="1" parent="1" source="xc64UkYX_4XRm6IWmarA-11" target="XW2PdBVg0nFlIH_IAWjY-5">
          <mxGeometry relative="1" as="geometry">
            <mxPoint x="190" y="480" as="sourcePoint" />
            <mxPoint x="350" y="480" as="targetPoint" />
          </mxGeometry>
        </mxCell>
        <mxCell id="XW2PdBVg0nFlIH_IAWjY-8" value="" style="endArrow=none;html=1;rounded=0;entryX=0;entryY=0.5;entryDx=0;entryDy=0;exitX=0.5;exitY=0;exitDx=0;exitDy=0;" edge="1" parent="1" source="xc64UkYX_4XRm6IWmarA-22" target="XW2PdBVg0nFlIH_IAWjY-7">
          <mxGeometry relative="1" as="geometry">
            <mxPoint x="413" y="700" as="sourcePoint" />
            <mxPoint x="704" y="450" as="targetPoint" />
          </mxGeometry>
        </mxCell>
        <mxCell id="XW2PdBVg0nFlIH_IAWjY-9" value="N" style="edgeLabel;html=1;align=center;verticalAlign=middle;resizable=0;points=[];" vertex="1" connectable="0" parent="XW2PdBVg0nFlIH_IAWjY-8">
          <mxGeometry x="-0.5696" y="-1" relative="1" as="geometry">
            <mxPoint as="offset" />
          </mxGeometry>
        </mxCell>
        <mxCell id="XW2PdBVg0nFlIH_IAWjY-7" value="Has" style="shape=rhombus;perimeter=rhombusPerimeter;whiteSpace=wrap;html=1;align=center;rotation=-41;" vertex="1" parent="1">
          <mxGeometry x="530" y="520" width="120" height="60" as="geometry" />
        </mxCell>
      </root>
    </mxGraphModel>
  </diagram>
</mxfile>
